{"glyphs":{"0":{"ha":1042,"x_min":22,"x_max":1020,"o":"m 1020 538 q 836 159 1020 323 q 439 0 657 0 q 147 106 266 0 q 22 388 22 218 q 206 767 22 603 q 603 926 384 926 q 895 819 775 926 q 1020 538 1020 708 m 703 490 q 658 594 703 552 q 551 637 613 637 q 406 575 472 637 q 339 435 339 514 q 384 331 339 373 q 491 289 428 289 q 636 351 569 289 q 703 490 703 412 z "},"1":{"ha":498,"x_min":63,"x_max":551,"o":"m 551 926 l 387 0 l 63 0 l 179 660 l 64 660 l 227 926 l 551 926 z "},"2":{"ha":1042,"x_min":-53,"x_max":1047,"o":"m 1047 679 q 939 447 1047 552 q 701 341 830 341 l 354 341 q 318 315 330 341 q 307 266 315 307 l 978 266 l 931 0 l -53 0 l -1 293 q 122 496 20 407 q 340 584 225 584 l 688 584 q 716 597 704 584 q 729 626 729 610 q 700 660 729 660 l 122 660 l 169 926 l 806 926 q 977 854 907 926 q 1047 679 1047 782 z "},"3":{"ha":984,"x_min":-53,"x_max":990,"o":"m 990 685 q 897 463 990 561 q 928 343 928 409 q 823 104 928 208 q 583 0 718 0 l -53 0 l -6 266 l 573 266 q 602 280 589 266 q 615 309 615 293 q 586 341 615 341 l 238 341 l 282 584 l 630 584 q 659 597 646 584 q 671 626 671 610 q 642 660 671 660 l 64 660 l 111 926 l 748 926 q 921 858 853 926 q 990 685 990 789 z "},"4":{"ha":1042,"x_min":-22,"x_max":1037,"o":"m 1037 926 l 955 463 l 1013 463 l 962 174 l 904 174 l 873 0 l 549 0 l 580 174 l -22 174 l 206 810 l 542 810 l 417 463 l 631 463 l 713 926 l 1037 926 z "},"5":{"ha":1042,"x_min":-53,"x_max":1037,"o":"m 1037 926 l 990 660 l 376 660 l 363 584 l 745 584 q 917 513 847 584 q 987 339 987 441 q 878 105 987 211 q 641 0 770 0 l -53 0 l -6 266 l 631 266 q 660 281 647 266 q 672 313 672 296 q 644 341 672 341 l 7 341 l 111 926 l 1037 926 z "},"6":{"ha":1042,"x_min":-6,"x_max":1037,"o":"m 1037 926 l 990 660 l 411 660 q 382 647 395 660 q 369 618 369 634 q 398 584 369 584 l 745 584 q 917 513 847 584 q 987 339 987 441 q 878 105 987 211 q 641 0 770 0 l 236 0 q 64 72 134 0 q -6 245 -6 144 q -1 292 -6 269 l 59 637 q 182 838 79 750 q 400 926 286 926 l 1037 926 m 672 313 q 644 341 672 341 l 354 341 q 325 329 338 341 q 313 300 313 316 q 341 266 313 266 l 631 266 q 660 281 647 266 q 672 313 672 296 z "},"7":{"ha":1042,"x_min":-53,"x_max":1095,"o":"m 1095 926 l 317 0 l -53 0 l 501 660 l 64 660 l 111 926 l 1095 926 z "},"8":{"ha":1042,"x_min":-8,"x_max":1029,"o":"m 1029 705 q 913 479 1029 576 q 981 314 981 416 q 873 93 981 190 q 641 0 767 0 l 236 0 q 66 64 137 0 q -8 228 -8 130 q 32 369 -8 300 q 133 479 72 435 q 84 623 84 538 q 193 838 84 745 q 424 926 297 926 l 782 926 q 953 866 881 926 q 1029 705 1029 802 m 706 626 q 677 660 706 660 l 434 660 q 405 645 418 660 q 392 613 392 630 q 421 584 392 584 l 664 584 q 693 597 681 584 q 706 626 706 610 m 672 308 q 644 341 672 341 l 354 341 q 325 326 338 341 q 313 295 313 311 q 341 266 313 266 l 631 266 q 660 279 647 266 q 672 308 672 292 z "},"9":{"ha":1042,"x_min":5,"x_max":1047,"o":"m 1047 681 q 1043 634 1047 657 l 983 289 q 859 88 963 176 q 641 0 756 0 l 5 0 l 52 266 l 631 266 q 660 279 647 266 q 672 308 672 292 q 644 341 672 341 l 296 341 q 124 413 194 341 q 54 587 54 485 q 163 821 54 715 q 400 926 272 926 l 806 926 q 977 854 907 926 q 1047 681 1047 782 m 729 626 q 700 660 729 660 l 411 660 q 382 645 395 660 q 369 613 369 630 q 398 584 369 584 l 688 584 q 716 597 704 584 q 729 626 729 610 z "}," ":{"ha":521,"x_min":0,"x_max":0,"o":""},"!":{"ha":289,"x_min":-35,"x_max":343,"o":"m 343 926 l 207 289 l 22 289 l 111 926 l 343 926 m 201 135 q 159 41 201 82 q 63 0 116 0 q -7 28 21 0 q -35 96 -35 56 q 8 190 -35 149 q 104 231 51 231 q 174 204 146 231 q 201 135 201 176 z "},"\"":{"ha":579,"x_min":37,"x_max":561,"o":"m 561 829 q 497 676 561 765 q 369 579 429 583 l 424 694 q 354 722 382 694 q 326 791 326 750 q 369 884 326 843 q 464 926 412 926 q 533 898 505 926 q 561 829 561 870 m 272 829 q 207 676 272 765 q 80 579 140 583 l 134 694 q 65 722 93 694 q 37 791 37 750 q 80 884 37 843 q 175 926 123 926 q 244 898 215 926 q 272 829 272 870 z "},"#":{"ha":925,"x_min":-14,"x_max":939,"o":"m 939 781 l 878 608 l 734 608 l 683 463 l 828 463 l 767 289 l 623 289 l 569 145 l 396 145 l 449 289 l 304 289 l 251 145 l 78 145 l 131 289 l -14 289 l 46 463 l 191 463 l 242 608 l 97 608 l 157 781 l 302 781 l 355 926 l 529 926 l 476 781 l 620 781 l 674 926 l 847 926 l 794 781 l 939 781 m 560 608 l 416 608 l 365 463 l 509 463 l 560 608 z "},"$":{"ha":984,"x_min":-53,"x_max":1037,"o":"m 1037 926 l 985 637 l 617 637 q 589 606 589 637 q 737 475 589 603 q 809 311 809 413 q 721 112 809 201 q 527 6 639 29 l 506 -116 l 274 -116 l 294 0 l -53 0 l -1 289 l 343 289 q 370 321 370 289 q 231 440 370 323 q 171 584 171 491 q 255 799 171 703 q 457 920 339 895 l 478 1042 l 709 1042 l 690 926 l 1037 926 z "},"%":{"ha":1171,"x_min":66,"x_max":1105,"o":"m 1105 269 q 1019 83 1105 166 q 829 0 932 0 q 692 57 748 0 q 635 194 635 113 q 722 380 635 296 q 911 463 808 463 q 1049 406 992 463 q 1105 269 1105 350 m 922 859 l 453 -12 l 249 67 l 719 938 l 922 859 m 536 731 q 450 546 536 630 q 260 463 363 463 q 123 520 179 463 q 66 657 66 576 q 153 843 66 759 q 343 926 240 926 q 480 869 424 926 q 536 731 536 813 m 958 245 q 937 297 958 275 q 885 318 916 318 q 815 287 847 318 q 782 218 782 256 q 804 166 782 188 q 855 145 825 145 q 926 176 894 145 q 958 245 958 207 m 389 708 q 367 760 389 738 q 316 781 346 781 q 245 750 278 781 q 213 681 213 719 q 234 629 213 650 q 286 608 256 608 q 356 639 324 608 q 389 708 389 670 z "},"&":{"ha":984,"x_min":-7,"x_max":1037,"o":"m 1037 926 l 990 660 l 411 660 q 382 645 395 660 q 369 613 369 630 q 398 584 369 584 l 572 584 l 528 341 l 354 341 q 326 328 338 341 q 314 297 314 314 q 341 266 314 266 l 626 266 l 656 440 l 950 440 l 873 0 l 236 0 q 63 68 133 0 q -7 240 -7 137 q 87 463 -7 363 q 54 586 54 517 q 161 822 54 718 q 400 926 267 926 l 1037 926 z "},"'":{"ha":289,"x_min":37,"x_max":272,"o":"m 272 829 q 207 676 272 765 q 80 579 140 583 l 134 694 q 65 722 93 694 q 37 791 37 750 q 80 884 37 843 q 175 926 123 926 q 244 898 215 926 q 272 829 272 870 z "},"(":{"ha":405,"x_min":12,"x_max":478,"o":"m 478 1042 q 237 199 237 641 q 274 -116 237 35 l 101 -116 q 12 271 12 56 q 89 681 12 479 q 304 1042 166 882 l 478 1042 z "},")":{"ha":405,"x_min":-73,"x_max":394,"o":"m 394 654 q 317 244 394 446 q 101 -116 240 43 l -73 -116 q 168 727 168 285 q 131 1042 168 891 l 304 1042 q 394 654 394 869 z "},"*":{"ha":528,"x_min":20,"x_max":508,"o":"m 508 727 l 403 671 l 490 616 l 398 495 l 313 551 l 293 440 l 154 440 l 174 551 l 67 495 l 20 616 l 125 671 l 38 727 l 130 847 l 215 792 l 235 903 l 374 903 l 354 792 l 461 847 l 508 727 z "},"+":{"ha":521,"x_min":14,"x_max":507,"o":"m 507 550 l 477 376 l 332 376 l 307 231 l 133 231 l 159 376 l 14 376 l 44 550 l 189 550 l 214 694 l 388 694 l 362 550 l 507 550 z "},",":{"ha":289,"x_min":37,"x_max":272,"o":"m 272 134 q 207 -19 272 71 q 80 -116 140 -111 l 134 0 q 65 28 93 0 q 37 96 37 56 q 80 190 37 148 q 175 231 123 231 q 244 204 215 231 q 272 134 272 176 z "},"-":{"ha":521,"x_min":14,"x_max":507,"o":"m 507 550 l 477 376 l 14 376 l 44 550 l 507 550 z "},".":{"ha":289,"x_min":28,"x_max":262,"o":"m 262 135 q 219 41 262 82 q 124 0 177 0 q 55 28 82 0 q 28 96 28 56 q 70 190 28 149 q 166 231 112 231 q 234 204 207 231 q 262 135 262 176 z "},"/":{"ha":613,"x_min":-89,"x_max":703,"o":"m 703 968 l 115 -120 l -89 -42 l 499 1046 l 703 968 z "},":":{"ha":289,"x_min":-13,"x_max":302,"o":"m 302 598 q 260 504 302 545 q 166 463 218 463 q 96 491 124 463 q 68 560 68 519 q 111 653 68 612 q 206 694 154 694 q 275 667 248 694 q 302 598 302 639 m 221 134 q 178 41 221 82 q 83 0 135 0 q 14 28 42 0 q -13 96 -13 56 q 29 190 -13 149 q 124 231 71 231 q 193 204 166 231 q 221 134 221 176 z "},";":{"ha":289,"x_min":-3,"x_max":313,"o":"m 313 598 q 270 504 313 545 q 175 463 228 463 q 106 491 133 463 q 79 559 79 519 q 121 653 79 612 q 216 694 163 694 q 285 667 258 694 q 313 598 313 639 m 231 134 q 167 -19 231 71 q 38 -116 98 -111 l 94 0 q 24 28 52 0 q -3 96 -3 56 q 39 190 -3 148 q 134 231 82 231 q 203 204 175 231 q 231 134 231 176 z "},"<":{"ha":521,"x_min":-112,"x_max":517,"o":"m 517 289 l 466 0 l -112 0 l -61 289 l 517 289 z "},"=":{"ha":637,"x_min":-7,"x_max":644,"o":"m 644 666 l 612 492 l 34 492 l 65 666 l 644 666 m 603 434 l 572 260 l -7 260 l 24 434 l 603 434 z "},">":{"ha":521,"x_min":-112,"x_max":517,"o":"m 517 926 l 466 637 l -112 637 l -61 926 l 517 926 z "},"?":{"ha":868,"x_min":-34,"x_max":874,"o":"m 874 679 q 764 447 874 552 q 528 341 655 341 l 285 341 q 226 266 237 341 l -6 266 l -1 293 q 122 496 19 407 q 340 584 225 584 l 514 584 q 543 597 530 584 q 556 626 556 610 q 527 660 556 660 l 64 660 l 111 926 l 632 926 q 804 854 734 926 q 874 679 874 781 m 200 135 q 157 42 200 83 q 63 0 115 0 q -6 28 22 0 q -34 96 -34 56 q 9 190 -34 148 q 104 231 52 231 q 173 204 146 231 q 200 135 200 176 z "},"@":{"ha":845,"x_min":23,"x_max":822,"o":"m 822 529 q 677 210 822 351 q 353 69 532 69 q 117 163 212 69 q 23 396 23 256 q 168 716 23 575 q 492 856 313 856 q 727 763 632 856 q 822 529 822 669 m 704 508 q 637 674 704 606 q 471 741 569 741 q 244 641 346 741 q 141 418 141 542 q 208 252 141 319 q 374 185 275 185 q 601 285 499 185 q 704 508 704 384 m 591 289 l 453 289 l 449 332 l 350 332 l 331 289 l 192 289 l 344 637 l 561 637 l 591 289 m 442 411 l 433 521 l 384 411 l 442 411 z "},"A":{"ha":1100,"x_min":-57,"x_max":988,"o":"m 988 0 l 630 0 l 620 116 l 356 116 l 306 0 l -53 0 l 226 637 l -57 637 l -5 926 l 910 926 l 988 0 m 600 347 l 576 617 l 458 347 l 600 347 z "},"B":{"ha":1042,"x_min":-57,"x_max":992,"o":"m 992 696 q 903 490 992 582 q 984 318 984 427 q 860 88 984 182 q 606 0 747 0 l -53 0 l 59 637 l -57 637 l -5 926 l 713 926 q 903 866 822 926 q 992 696 992 800 m 684 635 q 667 677 684 660 q 625 694 649 694 l 394 694 l 369 556 l 601 556 q 657 580 631 556 q 684 635 684 605 m 638 311 q 621 353 638 336 q 580 370 604 370 l 337 370 l 313 231 l 556 231 q 612 256 586 231 q 638 311 638 281 z "},"C":{"ha":926,"x_min":22,"x_max":983,"o":"m 983 289 l 931 0 l 439 0 q 147 106 266 0 q 22 388 22 218 q 206 767 22 603 q 603 926 384 926 l 979 926 l 927 637 l 551 637 q 406 575 472 637 q 339 435 339 514 q 384 331 339 373 q 491 289 428 289 l 983 289 z "},"D":{"ha":1042,"x_min":-57,"x_max":1020,"o":"m 1020 538 q 836 159 1020 323 q 439 0 657 0 l -53 0 l 59 637 l -57 637 l -5 926 l 603 926 q 895 819 775 926 q 1020 538 1020 708 m 703 491 q 658 594 703 552 q 551 637 613 637 l 383 637 l 323 289 l 491 289 q 636 351 569 289 q 703 491 703 412 z "},"E":{"ha":984,"x_min":-57,"x_max":1037,"o":"m 1037 926 l 985 637 l 406 637 l 398 584 l 745 584 l 701 341 l 354 341 l 346 289 l 925 289 l 873 0 l -53 0 l 59 637 l -57 637 l -5 926 l 1037 926 z "},"F":{"ha":984,"x_min":-57,"x_max":1037,"o":"m 1037 926 l 985 637 l 406 637 l 398 584 l 745 584 l 701 341 l 354 341 l 294 0 l -53 0 l 59 637 l -57 637 l -5 926 l 1037 926 z "},"G":{"ha":1042,"x_min":22,"x_max":1013,"o":"m 1013 463 l 931 0 l 439 0 q 147 106 266 0 q 22 388 22 218 q 206 767 22 603 q 603 926 384 926 q 917 800 793 926 l 668 588 q 551 637 622 637 q 406 575 472 637 q 339 435 339 514 q 384 331 339 373 q 491 289 428 289 l 635 289 l 666 463 l 1013 463 z "},"H":{"ha":1042,"x_min":-57,"x_max":1095,"o":"m 1095 926 l 931 0 l 583 0 l 644 341 l 354 341 l 294 0 l -53 0 l 59 637 l -57 637 l -5 926 l 458 926 l 398 584 l 688 584 l 748 926 l 1095 926 z "},"I":{"ha":405,"x_min":-57,"x_max":458,"o":"m 458 926 l 294 0 l -53 0 l 59 637 l -57 637 l -5 926 l 458 926 z "},"J":{"ha":608,"x_min":-36,"x_max":681,"o":"m 681 926 l 528 58 q 324 -191 495 -127 q -15 -231 216 -231 l -22 58 q 135 69 94 58 q 236 174 222 93 l 317 637 l -36 637 l 15 926 l 681 926 z "},"K":{"ha":1042,"x_min":-57,"x_max":1095,"o":"m 1095 926 l 671 442 l 786 303 q 840 289 797 289 l 983 289 l 931 0 l 688 0 q 477 116 572 0 l 344 278 l 294 0 l -53 0 l 59 637 l -57 637 l -5 926 l 458 926 l 404 623 l 671 926 l 1095 926 z "},"L":{"ha":926,"x_min":-57,"x_max":867,"o":"m 867 289 l 815 0 l -53 0 l 59 637 l -57 637 l -5 926 l 458 926 l 346 289 l 867 289 z "},"M":{"ha":1157,"x_min":-57,"x_max":1211,"o":"m 1211 926 l 1046 0 l 699 0 l 751 289 l 497 0 l 346 289 l 294 0 l -53 0 l 59 637 l -57 637 l -5 926 l 458 926 l 609 637 l 863 926 l 1211 926 z "},"N":{"ha":1042,"x_min":-57,"x_max":1095,"o":"m 1095 926 l 931 0 l 583 0 l 360 370 l 294 0 l -53 0 l 59 637 l -57 637 l -5 926 l 458 926 l 682 556 l 748 926 l 1095 926 z "},"O":{"ha":1042,"x_min":22,"x_max":1020,"o":"m 1020 538 q 836 159 1020 323 q 439 0 657 0 q 147 106 266 0 q 22 388 22 218 q 206 767 22 603 q 603 926 384 926 q 895 819 775 926 q 1020 538 1020 708 m 703 490 q 658 594 703 552 q 551 637 613 637 q 406 575 472 637 q 339 435 339 514 q 384 331 339 373 q 491 289 428 289 q 636 351 569 289 q 703 490 703 412 z "},"P":{"ha":1042,"x_min":-57,"x_max":1042,"o":"m 1042 653 q 920 395 1042 512 q 656 278 799 278 l 344 278 l 294 0 l -53 0 l 35 498 l 602 498 q 659 523 632 498 q 685 578 685 547 q 668 619 685 602 q 626 637 650 637 l -57 637 l -5 926 l 771 926 q 963 846 884 926 q 1042 653 1042 766 z "},"Q":{"ha":1100,"x_min":22,"x_max":1041,"o":"m 1041 289 l 988 0 l 439 0 q 147 106 266 0 q 22 388 22 218 q 206 767 22 603 q 603 926 384 926 q 895 819 775 926 q 1020 538 1020 708 q 948 289 1020 411 l 1041 289 m 703 490 q 658 594 703 552 q 551 637 613 637 q 406 575 472 637 q 339 435 339 514 q 384 331 339 373 q 491 289 428 289 q 636 351 569 289 q 703 490 703 412 z "},"R":{"ha":1100,"x_min":-57,"x_max":1044,"o":"m 1044 663 q 968 457 1044 554 q 789 326 895 365 q 844 289 804 289 l 1041 289 l 988 0 l 688 0 q 477 116 572 0 l 344 278 l 294 0 l -53 0 l 35 498 l 602 498 q 659 523 632 498 q 685 578 685 547 q 668 619 685 602 q 626 637 650 637 l -57 637 l -5 926 l 771 926 q 964 851 884 926 q 1044 663 1044 775 z "},"S":{"ha":984,"x_min":-169,"x_max":1037,"o":"m 1037 926 l 985 637 l 617 637 q 589 606 589 637 q 737 475 589 603 q 809 311 809 412 q 699 91 809 186 q 466 0 594 0 l -169 0 l -117 289 l 343 289 q 370 321 370 289 q 231 440 370 323 q 171 582 171 491 q 276 821 171 716 q 516 926 381 926 l 1037 926 z "},"T":{"ha":1042,"x_min":-57,"x_max":1095,"o":"m 1095 926 l 1043 637 l 725 637 l 612 0 l 265 0 l 377 637 l -57 637 l -5 926 l 1095 926 z "},"U":{"ha":1042,"x_min":-57,"x_max":1095,"o":"m 1095 926 l 1013 463 q 807 135 978 270 q 439 0 637 0 q 147 106 266 0 q 22 388 22 218 q 29 463 22 424 l 59 637 l -57 637 l -5 926 l 424 926 l 341 463 q 339 435 339 449 q 384 331 339 373 q 491 289 428 289 q 625 341 563 289 q 700 463 688 394 l 782 926 l 1095 926 z "},"V":{"ha":1100,"x_min":-57,"x_max":1153,"o":"m 1153 926 l 745 0 l 190 0 l 135 637 l -57 637 l -5 926 l 470 926 l 523 309 l 794 926 l 1153 926 z "},"W":{"ha":1493,"x_min":-57,"x_max":1546,"o":"m 1546 926 l 1139 0 l 745 0 l 720 309 l 583 0 l 190 0 l 135 637 l -57 637 l -5 926 l 470 926 l 495 617 l 632 926 l 1025 926 l 1051 617 l 1188 926 l 1546 926 z "},"X":{"ha":1215,"x_min":-57,"x_max":1269,"o":"m 1269 926 l 822 463 l 1104 0 l 676 0 l 560 191 l 375 0 l -53 0 l 394 463 l 287 637 l -57 637 l -5 926 l 539 926 l 655 735 l 840 926 l 1269 926 z "},"Y":{"ha":1146,"x_min":-57,"x_max":1199,"o":"m 1199 926 l 716 289 l 664 0 l 317 0 l 369 289 l 227 637 l -57 637 l -5 926 l 505 926 l 606 654 l 806 926 l 1199 926 z "},"Z":{"ha":1042,"x_min":-57,"x_max":1095,"o":"m 1095 926 l 561 289 l 983 289 l 931 0 l -53 0 l 480 637 l -57 637 l -5 926 l 1095 926 z "},"[":{"ha":405,"x_min":-73,"x_max":478,"o":"m 478 1042 l 438 810 l 322 810 l 199 116 l 315 116 l 274 -116 l -73 -116 l 131 1042 l 478 1042 z "},"\\":{"ha":613,"x_min":89,"x_max":524,"o":"m 524 -42 l 293 -120 l 89 968 l 321 1046 l 524 -42 z "},"]":{"ha":405,"x_min":-73,"x_max":478,"o":"m 478 1042 l 274 -116 l -73 -116 l -32 116 l 83 116 l 206 810 l 90 810 l 131 1042 l 478 1042 z "},"^":{"ha":660,"x_min":-7,"x_max":595,"o":"m 595 521 l 456 521 l 344 804 l 132 521 l -7 521 l 296 926 l 435 926 l 595 521 z "},"_":{"ha":463,"x_min":-15,"x_max":478,"o":"m 478 174 l 448 0 l -15 0 l 15 174 l 478 174 z "},"`":{"ha":579,"x_min":24,"x_max":538,"o":"m 538 1007 l 535 984 l 24 1042 l 160 1157 l 538 1007 z "},"a":{"ha":1100,"x_min":-53,"x_max":1269,"o":"m 1269 926 l 1216 637 l 934 637 l 988 0 l 630 0 l 620 116 l 356 116 l 306 0 l -53 0 l 354 926 l 1269 926 m 600 347 l 576 617 l 458 347 l 600 347 z "},"b":{"ha":1042,"x_min":-53,"x_max":992,"o":"m 992 696 q 903 490 992 582 q 984 318 984 427 q 860 88 984 182 q 606 0 747 0 l -53 0 l 111 926 l 713 926 q 903 866 822 926 q 992 696 992 800 m 684 635 q 667 677 684 660 q 625 694 649 694 l 394 694 l 369 556 l 601 556 q 657 580 631 556 q 684 635 684 605 m 638 311 q 621 353 638 336 q 580 370 604 370 l 337 370 l 313 231 l 556 231 q 612 256 586 231 q 638 311 638 281 z "},"c":{"ha":926,"x_min":22,"x_max":1095,"o":"m 1095 926 l 1043 637 l 551 637 q 406 575 472 637 q 339 435 339 514 q 384 331 339 373 q 491 289 428 289 l 867 289 l 815 0 l 439 0 q 147 106 266 0 q 22 388 22 218 q 206 767 22 603 q 603 926 384 926 l 1095 926 z "},"d":{"ha":1042,"x_min":-53,"x_max":1020,"o":"m 1020 538 q 836 159 1020 323 q 439 0 657 0 l -53 0 l 111 926 l 603 926 q 895 819 775 926 q 1020 538 1020 708 m 703 491 q 658 594 703 552 q 551 637 613 637 l 383 637 l 323 289 l 491 289 q 636 351 569 289 q 703 491 703 412 z "},"e":{"ha":984,"x_min":-53,"x_max":1153,"o":"m 1153 926 l 1101 637 l 406 637 l 398 584 l 745 584 l 701 341 l 354 341 l 346 289 l 925 289 l 873 0 l -53 0 l 111 926 l 1153 926 z "},"f":{"ha":984,"x_min":-53,"x_max":1153,"o":"m 1153 926 l 1101 637 l 406 637 l 398 584 l 745 584 l 701 341 l 354 341 l 294 0 l -53 0 l 111 926 l 1153 926 z "},"g":{"ha":1042,"x_min":22,"x_max":1211,"o":"m 1211 926 l 1159 637 l 551 637 q 406 575 472 637 q 339 435 339 514 q 384 331 339 373 q 491 289 428 289 l 635 289 l 666 463 l 1013 463 l 931 0 l 439 0 q 147 106 266 0 q 22 388 22 218 q 206 767 22 603 q 603 926 384 926 l 1211 926 z "},"h":{"ha":1042,"x_min":-53,"x_max":1211,"o":"m 1211 926 l 1159 637 l 1043 637 l 931 0 l 583 0 l 644 341 l 354 341 l 294 0 l -53 0 l 111 926 l 458 926 l 398 584 l 688 584 l 748 926 l 1211 926 z "},"i":{"ha":405,"x_min":-53,"x_max":574,"o":"m 574 926 l 522 637 l 406 637 l 294 0 l -53 0 l 111 926 l 574 926 z "},"j":{"ha":608,"x_min":-22,"x_max":796,"o":"m 796 926 l 745 637 l 630 637 l 528 58 q 324 -192 495 -128 q -15 -231 216 -231 l -22 58 q 135 69 94 58 q 236 174 222 93 l 368 926 l 796 926 z "},"k":{"ha":1042,"x_min":-53,"x_max":1098,"o":"m 1098 289 l 1046 0 l 688 0 q 477 116 572 0 l 344 278 l 294 0 l -53 0 l 111 926 l 458 926 l 404 623 l 671 926 l 1095 926 l 671 442 l 786 303 q 840 289 797 289 l 1098 289 z "},"l":{"ha":926,"x_min":-53,"x_max":983,"o":"m 983 289 l 931 0 l -53 0 l 111 926 l 458 926 l 346 289 l 983 289 z "},"m":{"ha":1157,"x_min":-53,"x_max":1326,"o":"m 1326 926 l 1274 637 l 1159 637 l 1046 0 l 699 0 l 751 289 l 497 0 l 346 289 l 294 0 l -53 0 l 111 926 l 458 926 l 609 637 l 863 926 l 1326 926 z "},"n":{"ha":1042,"x_min":-53,"x_max":1211,"o":"m 1211 926 l 1159 637 l 1043 637 l 931 0 l 583 0 l 360 370 l 294 0 l -53 0 l 111 926 l 458 926 l 682 556 l 748 926 l 1211 926 z "},"o":{"ha":1042,"x_min":22,"x_max":1020,"o":"m 1020 538 q 836 159 1020 323 q 439 0 657 0 q 147 106 266 0 q 22 388 22 218 q 206 767 22 603 q 603 926 384 926 q 895 819 775 926 q 1020 538 1020 708 m 703 490 q 658 594 703 552 q 551 637 613 637 q 406 575 472 637 q 339 435 339 514 q 384 331 339 373 q 491 289 428 289 q 636 351 569 289 q 703 490 703 412 z "},"p":{"ha":1042,"x_min":-53,"x_max":1042,"o":"m 1042 653 q 920 395 1042 512 q 656 278 799 278 l 344 278 l 294 0 l -53 0 l 111 926 l 771 926 q 963 846 884 926 q 1042 653 1042 766 m 691 612 q 674 654 691 637 q 633 671 657 671 l 413 671 l 389 532 l 609 532 q 665 557 639 532 q 691 612 691 582 z "},"q":{"ha":1100,"x_min":22,"x_max":1041,"o":"m 1041 289 l 988 0 l 439 0 q 147 106 266 0 q 22 388 22 218 q 206 767 22 603 q 603 926 384 926 q 895 819 775 926 q 1020 538 1020 708 q 948 289 1020 411 l 1041 289 m 703 490 q 658 594 703 552 q 551 637 613 637 q 406 575 472 637 q 339 435 339 514 q 384 331 339 373 q 491 289 428 289 q 636 351 569 289 q 703 490 703 412 z "},"r":{"ha":1100,"x_min":-53,"x_max":1156,"o":"m 1156 289 l 1104 0 l 688 0 q 477 116 572 0 l 344 278 l 294 0 l -53 0 l 111 926 l 771 926 q 964 851 884 926 q 1044 663 1044 775 q 968 457 1044 554 q 789 326 895 365 q 844 289 804 289 l 1156 289 m 691 612 q 674 654 691 637 q 633 671 657 671 l 413 671 l 389 532 l 609 532 q 665 557 639 532 q 691 612 691 582 z "},"s":{"ha":984,"x_min":-53,"x_max":1153,"o":"m 1153 926 l 1101 637 l 617 637 q 589 606 589 637 q 737 475 589 603 q 809 311 809 412 q 699 91 809 186 q 466 0 594 0 l -53 0 l -1 289 l 343 289 q 370 321 370 289 q 231 440 370 323 q 171 582 171 491 q 276 821 171 716 q 516 926 381 926 l 1153 926 z "},"t":{"ha":1042,"x_min":59,"x_max":1211,"o":"m 1211 926 l 1159 637 l 725 637 l 612 0 l 265 0 l 377 637 l 59 637 l 111 926 l 1211 926 z "},"u":{"ha":1042,"x_min":22,"x_max":1211,"o":"m 1211 926 l 1159 637 l 1043 637 l 1013 463 q 807 135 978 270 q 439 0 637 0 q 147 106 266 0 q 22 388 22 218 q 29 463 22 425 l 111 926 l 424 926 l 341 463 q 339 435 339 449 q 384 331 339 373 q 491 289 428 289 q 625 341 563 289 q 700 463 688 394 l 782 926 l 1211 926 z "},"v":{"ha":1100,"x_min":111,"x_max":1269,"o":"m 1269 926 l 1216 637 l 1024 637 l 745 0 l 190 0 l 111 926 l 470 926 l 523 309 l 794 926 l 1269 926 z "},"w":{"ha":1493,"x_min":111,"x_max":1662,"o":"m 1662 926 l 1610 637 l 1418 637 l 1139 0 l 745 0 l 720 309 l 583 0 l 190 0 l 111 926 l 470 926 l 495 617 l 632 926 l 1025 926 l 1051 617 l 1188 926 l 1662 926 z "},"x":{"ha":1215,"x_min":-53,"x_max":1384,"o":"m 1384 926 l 1332 637 l 988 637 l 822 463 l 1104 0 l 676 0 l 560 191 l 375 0 l -53 0 l 394 463 l 111 926 l 539 926 l 655 735 l 840 926 l 1384 926 z "},"y":{"ha":1146,"x_min":111,"x_max":1315,"o":"m 1315 926 l 1263 637 l 979 637 l 716 289 l 664 0 l 317 0 l 369 289 l 111 926 l 505 926 l 606 654 l 806 926 l 1315 926 z "},"z":{"ha":1042,"x_min":-53,"x_max":1098,"o":"m 1098 289 l 1046 0 l -53 0 l 480 637 l 59 637 l 111 926 l 1095 926 l 561 289 l 1098 289 z "},"{":{"ha":521,"x_min":19,"x_max":594,"o":"m 594 1042 l 553 810 l 438 810 l 397 579 q 348 499 389 532 q 260 463 308 465 q 329 433 301 461 q 356 366 356 406 q 355 347 356 356 l 315 116 l 431 116 l 390 -116 l 274 -116 q 136 -59 192 -116 q 80 79 80 -2 q 83 116 80 97 l 115 289 q 116 308 116 299 q 87 376 116 348 q 19 405 59 403 l 37 509 q 125 545 84 512 q 174 625 166 579 l 206 810 q 304 972 222 903 q 478 1042 385 1042 l 594 1042 z "},"|":{"ha":321,"x_min":-73,"x_max":362,"o":"m 362 1042 l 159 -116 l -73 -116 l 131 1042 l 362 1042 z "},"}":{"ha":521,"x_min":-73,"x_max":500,"o":"m 500 509 l 481 405 q 394 369 434 403 q 346 289 354 336 l 315 116 q 218 -46 299 23 q 43 -116 137 -116 l -73 -116 l -32 116 l 83 116 l 124 347 q 172 427 132 394 q 260 463 213 461 q 192 492 220 465 q 164 560 164 520 q 166 579 164 569 l 206 810 l 90 810 l 131 1042 l 247 1042 q 385 986 329 1042 q 441 847 441 929 q 438 810 441 829 l 405 625 q 404 606 404 616 q 432 539 404 566 q 500 509 459 512 z "},"~":{"ha":521,"x_min":15,"x_max":506,"o":"m 506 1147 l 486 1031 q 359 984 413 984 q 250 1012 321 984 q 141 1039 179 1039 q 15 984 87 1039 l 36 1102 q 160 1147 96 1147 q 270 1119 199 1147 q 381 1091 341 1091 q 506 1147 435 1091 z "},"‚":{"ha":289,"x_min":37,"x_max":272,"o":"m 272 134 q 207 -19 272 71 q 80 -116 140 -111 l 134 0 q 65 28 93 0 q 37 96 37 56 q 80 190 37 148 q 175 231 123 231 q 244 204 215 231 q 272 134 272 176 z "},"„":{"ha":579,"x_min":37,"x_max":561,"o":"m 561 134 q 497 -19 561 71 q 369 -116 429 -111 l 424 0 q 354 28 382 0 q 326 96 326 56 q 369 190 326 148 q 464 231 412 231 q 533 204 505 231 q 561 134 561 176 m 272 134 q 207 -19 272 71 q 80 -116 140 -111 l 134 0 q 65 28 93 0 q 37 96 37 56 q 80 190 37 148 q 175 231 123 231 q 244 204 215 231 q 272 134 272 176 z "},"…":{"ha":868,"x_min":27,"x_max":841,"o":"m 841 135 q 799 41 841 82 q 703 0 756 0 q 633 28 661 0 q 605 96 605 56 q 648 190 605 149 q 744 231 691 231 q 814 204 786 231 q 841 135 841 176 m 551 135 q 509 41 551 82 q 413 0 466 0 q 344 28 372 0 q 316 96 316 56 q 359 190 316 149 q 455 231 402 231 q 524 204 497 231 q 551 135 551 176 m 263 135 q 220 41 263 82 q 124 0 177 0 q 54 28 82 0 q 27 96 27 56 q 69 190 27 149 q 166 231 112 231 q 235 204 207 231 q 263 135 263 176 z "},"‰":{"ha":1657,"x_min":66,"x_max":1591,"o":"m 1591 269 q 1505 83 1591 166 q 1315 0 1418 0 q 1178 57 1234 0 q 1122 194 1122 113 q 1208 380 1122 296 q 1397 463 1294 463 q 1535 406 1478 463 q 1591 269 1591 350 m 1105 269 q 1019 83 1105 166 q 829 0 932 0 q 692 57 748 0 q 635 194 635 113 q 722 380 635 296 q 911 463 808 463 q 1049 406 992 463 q 1105 269 1105 350 m 922 859 l 453 -12 l 249 67 l 719 938 l 922 859 m 536 731 q 450 546 536 630 q 260 463 363 463 q 123 520 179 463 q 66 657 66 576 q 153 843 66 760 q 343 926 240 926 q 480 869 424 926 q 536 731 536 813 m 1444 245 q 1423 297 1444 275 q 1372 318 1402 318 q 1301 287 1333 318 q 1269 218 1269 256 q 1290 166 1269 188 q 1341 145 1311 145 q 1412 176 1380 145 q 1444 245 1444 207 m 958 245 q 937 297 958 275 q 885 318 916 318 q 815 287 847 318 q 782 218 782 256 q 804 166 782 188 q 855 145 825 145 q 926 176 894 145 q 958 245 958 207 m 389 708 q 367 760 389 738 q 316 781 346 781 q 245 750 278 781 q 213 681 213 719 q 234 629 213 650 q 286 608 256 608 q 356 639 324 608 q 389 708 389 670 z "},"Š":{"ha":984,"x_min":-189,"x_max":1016,"o":"m 931 1157 l 669 984 l 458 984 l 257 1157 l 444 1157 l 574 1045 l 743 1157 l 931 1157 m 1016 926 l 965 637 l 597 637 q 569 605 569 637 q 716 475 569 603 q 788 311 788 413 q 681 93 788 186 q 447 0 574 0 l -189 0 l -138 289 l 322 289 q 350 321 350 289 q 212 440 350 323 q 150 584 150 492 q 256 822 150 718 q 495 926 361 926 l 1016 926 z "},"Œ":{"ha":1661,"x_min":22,"x_max":1714,"o":"m 1714 926 l 1662 637 l 1083 637 l 1075 584 l 1422 584 l 1378 341 l 1031 341 l 1023 289 l 1602 289 l 1550 0 l 624 0 l 631 35 q 439 0 535 0 q 147 106 266 0 q 22 388 22 218 q 206 767 22 603 q 603 926 384 926 q 781 891 697 926 l 788 926 l 1714 926 m 703 490 q 658 594 703 552 q 551 637 613 637 q 406 575 472 637 q 339 435 339 514 q 384 331 339 373 q 491 289 428 289 q 636 351 569 289 q 703 490 703 412 z "},"‘":{"ha":289,"x_min":17,"x_max":252,"o":"m 252 714 q 209 620 252 662 q 115 579 167 579 q 46 606 74 579 q 17 676 17 634 q 83 830 17 740 q 209 926 149 921 l 155 810 q 225 782 197 810 q 252 714 252 755 z "},"’":{"ha":289,"x_min":37,"x_max":272,"o":"m 272 829 q 207 676 272 765 q 80 579 140 583 l 134 694 q 65 722 93 694 q 37 791 37 750 q 80 884 37 843 q 175 926 123 926 q 244 898 215 926 q 272 829 272 870 z "},"“":{"ha":579,"x_min":17,"x_max":542,"o":"m 542 714 q 499 620 542 662 q 404 579 456 579 q 335 606 363 579 q 307 676 307 634 q 373 830 307 740 q 499 926 439 921 l 444 810 q 514 782 486 810 q 542 714 542 755 m 252 714 q 209 620 252 662 q 115 579 167 579 q 46 606 74 579 q 17 676 17 634 q 83 830 17 740 q 209 926 149 921 l 155 810 q 225 782 197 810 q 252 714 252 755 z "},"”":{"ha":579,"x_min":37,"x_max":561,"o":"m 561 829 q 497 676 561 765 q 369 579 429 583 l 424 694 q 354 722 382 694 q 326 791 326 750 q 369 884 326 843 q 464 926 412 926 q 533 898 505 926 q 561 829 561 870 m 272 829 q 207 676 272 765 q 80 579 140 583 l 134 694 q 65 722 93 694 q 37 791 37 750 q 80 884 37 843 q 175 926 123 926 q 244 898 215 926 q 272 829 272 870 z "},"•":{"ha":405,"x_min":27,"x_max":378,"o":"m 378 492 q 315 351 378 413 q 172 289 251 289 q 68 330 110 289 q 27 434 27 372 q 90 575 27 513 q 233 637 154 637 q 337 595 295 637 q 378 492 378 554 z "},"˜":{"ha":521,"x_min":15,"x_max":506,"o":"m 506 1147 l 486 1031 q 359 984 413 984 q 250 1012 321 984 q 141 1039 179 1039 q 15 984 87 1039 l 36 1102 q 160 1147 96 1147 q 270 1119 199 1147 q 381 1091 341 1091 q 506 1147 435 1091 z "},"™":{"ha":839,"x_min":41,"x_max":840,"o":"m 840 810 l 780 463 l 650 463 l 669 572 l 574 463 l 516 572 l 498 463 l 368 463 l 410 701 l 291 701 l 249 463 l 118 463 l 160 701 l 41 701 l 59 810 l 558 810 l 616 701 l 711 810 l 840 810 z "},"š":{"ha":984,"x_min":-73,"x_max":1132,"o":"m 931 1157 l 669 984 l 458 984 l 257 1157 l 444 1157 l 574 1045 l 743 1157 l 931 1157 m 1132 926 l 1081 637 l 597 637 q 569 605 569 637 q 716 475 569 603 q 788 311 788 413 q 681 93 788 186 q 447 0 574 0 l -73 0 l -22 289 l 322 289 q 350 321 350 289 q 212 440 350 323 q 150 584 150 492 q 256 822 150 718 q 495 926 361 926 l 1132 926 z "},"œ":{"ha":1661,"x_min":22,"x_max":1830,"o":"m 1830 926 l 1778 637 l 1083 637 l 1075 584 l 1422 584 l 1378 341 l 1031 341 l 1023 289 l 1602 289 l 1550 0 l 624 0 l 631 35 q 439 0 535 0 q 147 106 266 0 q 22 388 22 218 q 206 767 22 603 q 603 926 384 926 q 781 891 697 926 l 788 926 l 1830 926 m 703 490 q 658 594 703 552 q 551 637 613 637 q 406 575 472 637 q 339 435 339 514 q 384 331 339 373 q 491 289 428 289 q 636 351 569 289 q 703 490 703 412 z "},"Ÿ":{"ha":1146,"x_min":-76,"x_max":1178,"o":"m 892 1084 q 861 1015 892 1046 q 789 984 829 984 q 737 1005 758 984 q 716 1057 716 1025 q 748 1126 716 1095 q 819 1157 780 1157 q 872 1137 851 1157 q 892 1084 892 1116 m 603 1084 q 571 1015 603 1046 q 500 984 539 984 q 448 1005 469 984 q 427 1057 427 1025 q 459 1126 427 1095 q 530 1157 491 1157 q 582 1137 561 1157 q 603 1084 603 1116 m 1178 926 l 696 289 l 645 0 l 297 0 l 348 289 l 207 637 l -76 637 l -25 926 l 484 926 l 586 654 l 785 926 l 1178 926 z "}," ":{"ha":521,"x_min":0,"x_max":0,"o":""},"¡":{"ha":289,"x_min":-53,"x_max":323,"o":"m 323 830 q 281 736 323 777 q 185 694 238 694 q 116 722 144 694 q 89 791 89 750 q 131 885 89 844 q 227 926 174 926 q 296 898 269 926 q 323 830 323 870 m 267 637 l 178 0 l -53 0 l 82 637 l 267 637 z "},"¢":{"ha":926,"x_min":22,"x_max":979,"o":"m 979 926 l 927 637 l 551 637 q 406 575 472 637 q 339 435 339 514 q 384 331 339 373 q 491 289 428 289 l 867 289 l 815 0 l 543 0 l 523 -116 l 292 -116 l 315 16 q 103 153 184 52 q 22 388 22 255 q 160 721 22 571 q 472 910 289 863 l 495 1042 l 727 1042 l 707 926 l 979 926 z "},"¥":{"ha":1146,"x_min":36,"x_max":1199,"o":"m 1199 926 l 935 579 l 1080 579 l 1049 405 l 803 405 l 759 347 l 1038 347 l 1008 174 l 696 174 l 664 0 l 317 0 l 348 174 l 36 174 l 66 347 l 345 347 l 322 405 l 76 405 l 108 579 l 252 579 l 111 926 l 505 926 l 606 654 l 806 926 l 1199 926 z "},"¨":{"ha":521,"x_min":28,"x_max":493,"o":"m 493 1084 q 461 1015 493 1046 q 390 984 429 984 q 338 1005 359 984 q 317 1057 317 1025 q 349 1126 317 1095 q 420 1157 381 1157 q 472 1137 451 1157 q 493 1084 493 1116 m 204 1084 q 172 1015 204 1046 q 101 984 140 984 q 49 1005 69 984 q 28 1057 28 1025 q 60 1126 28 1095 q 131 1157 91 1157 q 183 1137 162 1157 q 204 1084 204 1116 z "},"©":{"ha":845,"x_min":23,"x_max":822,"o":"m 822 529 q 677 210 822 351 q 353 69 532 69 q 117 163 212 69 q 23 396 23 256 q 168 716 23 575 q 492 856 313 856 q 727 763 632 856 q 822 529 822 669 m 704 508 q 637 674 704 606 q 471 741 569 741 q 244 641 346 741 q 141 418 141 542 q 208 252 141 319 q 374 185 275 185 q 601 285 499 185 q 704 508 704 384 m 569 637 l 551 528 l 420 528 q 359 506 388 528 q 330 454 330 485 q 351 413 330 428 q 397 398 372 398 l 528 398 l 509 289 l 378 289 q 262 331 313 289 q 211 438 211 373 q 286 579 211 517 q 439 637 356 637 l 569 637 z "},"­":{"ha":521,"x_min":14,"x_max":507,"o":"m 507 550 l 477 376 l 14 376 l 44 550 l 507 550 z "},"®":{"ha":845,"x_min":23,"x_max":822,"o":"m 822 529 q 677 210 822 351 q 353 69 532 69 q 117 163 212 69 q 23 396 23 256 q 168 716 23 575 q 492 856 313 856 q 727 763 632 856 q 822 529 822 669 m 704 508 q 637 674 704 606 q 471 741 569 741 q 244 641 346 741 q 141 418 141 542 q 208 252 141 319 q 374 185 275 185 q 601 285 499 185 q 704 508 704 384 m 608 537 q 579 462 608 498 q 512 412 551 427 q 532 398 517 398 l 606 398 l 588 289 l 475 289 q 398 325 434 289 q 345 394 385 337 l 328 289 l 197 289 l 257 637 l 505 637 q 577 608 546 637 q 608 537 608 579 m 475 520 q 454 542 475 542 l 372 542 l 362 488 l 444 488 q 475 520 475 488 z "},"°":{"ha":318,"x_min":27,"x_max":292,"o":"m 292 817 q 243 712 292 758 q 135 666 194 666 q 58 696 89 666 q 27 773 27 727 q 75 879 27 832 q 182 926 123 926 q 260 895 228 926 q 292 817 292 863 m 221 804 q 206 841 221 826 q 169 856 191 856 q 119 834 141 856 q 96 785 96 813 q 111 749 96 764 q 148 734 126 734 q 198 756 175 734 q 221 804 221 778 z "},"±":{"ha":521,"x_min":-32,"x_max":528,"o":"m 528 550 l 497 376 l 352 376 l 326 231 l 153 231 l 178 376 l 34 376 l 65 550 l 209 550 l 235 694 l 409 694 l 383 550 l 528 550 m 462 174 l 431 0 l -32 0 l -1 174 l 462 174 z "},"´":{"ha":579,"x_min":14,"x_max":545,"o":"m 545 1042 l 14 984 l 17 1007 l 449 1157 l 545 1042 z "},"¶":{"ha":1042,"x_min":49,"x_max":1095,"o":"m 1095 926 l 1050 671 l 969 671 l 850 0 l 618 0 l 737 671 l 622 671 l 502 0 l 271 0 l 321 278 q 128 358 207 279 q 49 551 49 438 q 171 810 49 693 q 435 926 293 926 l 1095 926 z "},"¼":{"ha":1041,"x_min":87,"x_max":980,"o":"m 980 451 l 940 220 l 969 220 l 943 75 l 914 75 l 899 -12 l 737 -12 l 752 75 l 451 75 l 565 394 l 733 394 l 671 220 l 778 220 l 818 451 l 980 451 m 331 926 l 249 463 l 87 463 l 145 793 l 87 793 l 169 926 l 331 926 m 767 859 l 297 -12 l 94 67 l 564 938 l 767 859 z "},"½":{"ha":1098,"x_min":87,"x_max":1046,"o":"m 1046 339 q 991 223 1046 275 q 873 170 936 170 l 699 170 q 676 133 679 170 l 1012 133 l 987 0 l 495 0 l 522 146 q 583 248 532 204 q 692 292 634 292 l 866 292 q 887 313 887 292 q 873 330 887 330 l 583 330 l 606 463 l 925 463 q 1011 427 976 463 q 1046 339 1046 390 m 331 926 l 249 463 l 87 463 l 145 793 l 87 793 l 169 926 l 331 926 m 767 859 l 297 -12 l 94 67 l 564 938 l 767 859 z "},"¾":{"ha":1249,"x_min":29,"x_max":1191,"o":"m 1191 463 l 1150 231 l 1179 231 l 1154 87 l 1125 87 l 1109 0 l 947 0 l 963 87 l 662 87 l 775 405 l 943 405 l 882 231 l 988 231 l 1029 463 l 1191 463 m 964 859 l 494 -12 l 291 67 l 760 938 l 964 859 m 550 806 q 503 694 550 744 q 520 632 520 667 q 466 515 520 567 q 347 463 413 463 l 29 463 l 52 596 l 341 596 q 362 618 362 596 q 348 634 362 634 l 175 634 l 197 756 l 370 756 q 390 777 390 756 q 376 793 390 793 l 87 793 l 111 926 l 429 926 q 516 892 481 926 q 550 806 550 858 z "},"¿":{"ha":868,"x_min":-6,"x_max":902,"o":"m 902 830 q 859 736 902 778 q 764 694 816 694 q 695 722 722 694 q 668 791 668 750 q 711 885 668 844 q 806 926 753 926 q 874 898 847 926 q 902 830 902 870 m 874 660 l 869 633 q 747 430 850 519 q 528 341 644 341 l 354 341 q 325 329 338 341 q 313 300 313 316 q 341 266 313 266 l 804 266 l 757 0 l 236 0 q 64 72 134 0 q -6 247 -6 145 q 104 479 -6 374 q 340 584 213 584 l 583 584 q 642 660 631 584 l 874 660 z "},"À":{"ha":1100,"x_min":-76,"x_max":969,"o":"m 770 1007 l 766 984 l 256 1042 l 391 1157 l 770 1007 m 969 0 l 610 0 l 600 116 l 336 116 l 286 0 l -73 0 l 206 637 l -76 637 l -25 926 l 889 926 l 969 0 m 580 347 l 557 617 l 439 347 l 580 347 z "},"Á":{"ha":1100,"x_min":-76,"x_max":1008,"o":"m 1008 1042 l 477 984 l 480 1007 l 912 1157 l 1008 1042 m 969 0 l 610 0 l 600 116 l 336 116 l 286 0 l -73 0 l 206 637 l -76 637 l -25 926 l 889 926 l 969 0 m 580 347 l 557 617 l 439 347 l 580 347 z "},"Â":{"ha":1100,"x_min":-76,"x_max":969,"o":"m 958 984 l 771 984 l 641 1096 l 472 984 l 285 984 l 546 1157 l 757 1157 l 958 984 m 969 0 l 610 0 l 600 116 l 336 116 l 286 0 l -73 0 l 206 637 l -76 637 l -25 926 l 889 926 l 969 0 m 580 347 l 557 617 l 439 347 l 580 347 z "},"Ã":{"ha":1100,"x_min":-75,"x_max":970,"o":"m 882 1147 l 862 1031 q 735 984 789 984 q 626 1012 697 984 q 517 1039 556 1039 q 391 984 463 1039 l 411 1102 q 536 1147 471 1147 q 646 1119 575 1147 q 757 1091 718 1091 q 882 1147 811 1091 m 970 0 l 611 0 l 601 116 l 337 116 l 287 0 l -72 0 l 207 637 l -75 637 l -24 926 l 890 926 l 970 0 m 581 347 l 558 617 l 440 347 l 581 347 z "},"Ä":{"ha":1100,"x_min":-76,"x_max":969,"o":"m 869 1084 q 837 1015 869 1046 q 766 984 806 984 q 714 1005 735 984 q 693 1057 693 1025 q 725 1126 693 1095 q 796 1157 757 1157 q 848 1137 828 1157 q 869 1084 869 1116 m 580 1084 q 548 1015 580 1046 q 477 984 516 984 q 425 1005 446 984 q 404 1057 404 1025 q 436 1126 404 1095 q 507 1157 468 1157 q 559 1137 538 1157 q 580 1084 580 1116 m 969 0 l 610 0 l 600 116 l 336 116 l 286 0 l -73 0 l 206 637 l -76 637 l -25 926 l 889 926 l 969 0 m 580 347 l 557 617 l 439 347 l 580 347 z "},"Å":{"ha":1100,"x_min":-76,"x_max":969,"o":"m 725 1084 q 693 1015 725 1046 q 622 984 661 984 q 569 1005 590 984 q 549 1057 549 1025 q 580 1126 549 1095 q 652 1157 612 1157 q 704 1137 683 1157 q 725 1084 725 1116 m 969 0 l 610 0 l 600 116 l 336 116 l 286 0 l -73 0 l 206 637 l -76 637 l -25 926 l 889 926 l 969 0 m 677 1076 q 644 1111 677 1111 q 610 1097 625 1111 q 595 1064 595 1082 q 630 1030 595 1030 q 662 1045 647 1030 q 677 1076 677 1059 m 580 347 l 557 617 l 439 347 l 580 347 z "},"Æ":{"ha":1667,"x_min":-53,"x_max":1720,"o":"m 1720 926 l 1668 637 l 1089 637 l 1081 584 l 1428 584 l 1384 341 l 1037 341 l 1029 289 l 1608 289 l 1556 0 l 630 0 l 650 116 l 387 116 l 306 0 l -53 0 l 593 926 l 1720 926 m 738 617 l 532 324 l 688 324 l 738 617 z "},"È":{"ha":984,"x_min":-76,"x_max":1016,"o":"m 712 1007 l 708 984 l 198 1042 l 333 1157 l 712 1007 m 1016 926 l 965 637 l 387 637 l 377 584 l 725 584 l 682 341 l 334 341 l 325 289 l 904 289 l 853 0 l -73 0 l 39 637 l -76 637 l -25 926 l 1016 926 z "},"É":{"ha":984,"x_min":-76,"x_max":1016,"o":"m 950 1042 l 419 984 l 422 1007 l 854 1157 l 950 1042 m 1016 926 l 965 637 l 387 637 l 377 584 l 725 584 l 682 341 l 334 341 l 325 289 l 904 289 l 853 0 l -73 0 l 39 637 l -76 637 l -25 926 l 1016 926 z "},"Ê":{"ha":984,"x_min":-76,"x_max":1016,"o":"m 900 984 l 713 984 l 583 1096 l 414 984 l 227 984 l 488 1157 l 699 1157 l 900 984 m 1016 926 l 965 637 l 387 637 l 377 584 l 725 584 l 682 341 l 334 341 l 325 289 l 904 289 l 853 0 l -73 0 l 39 637 l -76 637 l -25 926 l 1016 926 z "},"Ë":{"ha":984,"x_min":-76,"x_max":1016,"o":"m 811 1084 q 780 1015 811 1046 q 708 984 748 984 q 656 1005 677 984 q 635 1057 635 1025 q 667 1126 635 1095 q 738 1157 699 1157 q 791 1137 770 1157 q 811 1084 811 1116 m 522 1084 q 490 1015 522 1046 q 419 984 458 984 q 367 1005 388 984 q 346 1057 346 1025 q 378 1126 346 1095 q 449 1157 410 1157 q 501 1137 480 1157 q 522 1084 522 1116 m 1016 926 l 965 637 l 387 637 l 377 584 l 725 584 l 682 341 l 334 341 l 325 289 l 904 289 l 853 0 l -73 0 l 39 637 l -76 637 l -25 926 l 1016 926 z "},"Ì":{"ha":405,"x_min":-91,"x_max":438,"o":"m 422 1007 l 419 984 l -91 1042 l 44 1157 l 422 1007 m 438 926 l 274 0 l -73 0 l 39 637 l -76 637 l -25 926 l 438 926 z "},"Í":{"ha":405,"x_min":-76,"x_max":661,"o":"m 661 1042 l 130 984 l 133 1007 l 565 1157 l 661 1042 m 438 926 l 274 0 l -73 0 l 39 637 l -76 637 l -25 926 l 438 926 z "},"Î":{"ha":405,"x_min":-76,"x_max":611,"o":"m 611 984 l 424 984 l 294 1096 l 125 984 l -62 984 l 199 1157 l 410 1157 l 611 984 m 438 926 l 274 0 l -73 0 l 39 637 l -76 637 l -25 926 l 438 926 z "},"Ï":{"ha":405,"x_min":-76,"x_max":522,"o":"m 522 1084 q 490 1015 522 1046 q 419 984 458 984 q 367 1005 388 984 q 346 1057 346 1025 q 378 1126 346 1095 q 449 1157 410 1157 q 501 1137 480 1157 q 522 1084 522 1116 m 233 1084 q 201 1015 233 1046 q 130 984 169 984 q 78 1005 98 984 q 57 1057 57 1025 q 89 1126 57 1095 q 160 1157 120 1157 q 212 1137 191 1157 q 233 1084 233 1116 m 438 926 l 274 0 l -73 0 l 39 637 l -76 637 l -25 926 l 438 926 z "},"Ñ":{"ha":1042,"x_min":-75,"x_max":1075,"o":"m 853 1147 l 833 1031 q 706 984 760 984 q 597 1012 668 984 q 488 1039 527 1039 q 362 984 434 1039 l 382 1102 q 507 1147 442 1147 q 617 1119 546 1147 q 728 1091 689 1091 q 853 1147 782 1091 m 1075 926 l 912 0 l 565 0 l 340 370 l 275 0 l -72 0 l 41 637 l -75 637 l -24 926 l 439 926 l 662 556 l 728 926 l 1075 926 z "},"Ò":{"ha":1042,"x_min":1,"x_max":999,"o":"m 741 1007 l 737 984 l 227 1042 l 362 1157 l 741 1007 m 999 538 q 815 159 999 323 q 419 0 638 0 q 126 106 247 0 q 1 388 1 218 q 185 767 1 603 q 582 926 363 926 q 874 819 755 926 q 999 538 999 708 m 682 491 q 638 594 682 552 q 531 637 594 637 q 385 575 453 637 q 318 435 318 514 q 363 331 318 373 q 470 289 407 289 q 615 351 549 289 q 682 491 682 412 z "},"Ó":{"ha":1042,"x_min":1,"x_max":999,"o":"m 979 1042 l 448 984 l 451 1007 l 883 1157 l 979 1042 m 999 538 q 815 159 999 323 q 419 0 638 0 q 126 106 247 0 q 1 388 1 218 q 185 767 1 603 q 582 926 363 926 q 874 819 755 926 q 999 538 999 708 m 682 491 q 638 594 682 552 q 531 637 594 637 q 385 575 453 637 q 318 435 318 514 q 363 331 318 373 q 470 289 407 289 q 615 351 549 289 q 682 491 682 412 z "},"Ô":{"ha":1042,"x_min":1,"x_max":999,"o":"m 929 984 l 742 984 l 612 1096 l 443 984 l 256 984 l 517 1157 l 728 1157 l 929 984 m 999 538 q 815 159 999 323 q 419 0 638 0 q 126 106 247 0 q 1 388 1 218 q 185 767 1 603 q 582 926 363 926 q 874 819 755 926 q 999 538 999 708 m 682 490 q 638 594 682 552 q 531 637 594 637 q 385 575 453 637 q 318 435 318 514 q 363 331 318 373 q 470 289 407 289 q 615 351 549 289 q 682 490 682 412 z "},"Õ":{"ha":1042,"x_min":2,"x_max":1000,"o":"m 853 1147 l 833 1031 q 706 984 760 984 q 597 1012 668 984 q 488 1039 527 1039 q 362 984 434 1039 l 382 1102 q 507 1147 442 1147 q 617 1119 546 1147 q 728 1091 689 1091 q 853 1147 782 1091 m 1000 538 q 816 159 1000 323 q 420 0 639 0 q 127 106 248 0 q 2 388 2 218 q 186 767 2 603 q 583 926 365 926 q 875 819 756 926 q 1000 538 1000 708 m 683 491 q 639 594 683 552 q 532 637 595 637 q 387 575 454 637 q 319 435 319 514 q 364 331 319 373 q 471 289 409 289 q 616 351 550 289 q 683 491 683 412 z "},"Ö":{"ha":1042,"x_min":1,"x_max":999,"o":"m 840 1084 q 808 1015 840 1046 q 737 984 777 984 q 685 1005 706 984 q 664 1057 664 1025 q 696 1126 664 1095 q 767 1157 728 1157 q 819 1137 799 1157 q 840 1084 840 1116 m 551 1084 q 519 1015 551 1046 q 448 984 487 984 q 396 1005 417 984 q 375 1057 375 1025 q 407 1126 375 1095 q 478 1157 439 1157 q 530 1137 509 1157 q 551 1084 551 1116 m 999 538 q 815 159 999 323 q 419 0 638 0 q 126 106 247 0 q 1 388 1 218 q 185 767 1 603 q 582 926 363 926 q 874 819 755 926 q 999 538 999 708 m 682 491 q 638 594 682 552 q 531 637 594 637 q 385 575 453 637 q 318 435 318 514 q 363 331 318 373 q 470 289 407 289 q 615 351 549 289 q 682 491 682 412 z "},"×":{"ha":507,"x_min":10,"x_max":497,"o":"m 497 565 l 376 463 l 459 361 l 316 238 l 231 340 l 112 238 l 10 361 l 131 463 l 47 565 l 191 688 l 275 586 l 395 688 l 497 565 z "},"Ø":{"ha":1042,"x_min":-106,"x_max":1148,"o":"m 1148 892 l 965 736 q 1020 537 1020 648 q 834 159 1020 322 q 439 0 657 0 q 188 75 297 0 l -6 -89 l -106 34 l 76 190 q 22 389 22 278 q 207 767 22 604 q 603 926 385 926 q 854 851 743 926 l 1047 1015 l 1148 892 m 596 631 q 551 637 575 637 q 407 576 475 637 q 339 440 339 515 q 341 414 339 427 l 596 631 m 703 486 q 700 512 703 499 l 446 295 q 491 289 466 289 q 635 350 567 289 q 703 486 703 411 z "},"Ù":{"ha":1042,"x_min":-76,"x_max":1074,"o":"m 741 1007 l 737 984 l 227 1042 l 362 1157 l 741 1007 m 1074 926 l 992 463 q 787 135 957 270 q 419 0 617 0 q 126 106 247 0 q 1 388 1 218 q 8 463 1 426 l 39 637 l -76 637 l -25 926 l 403 926 l 321 463 q 318 435 318 449 q 363 331 318 373 q 470 289 407 289 q 604 341 542 289 q 679 463 667 394 l 762 926 l 1074 926 z "},"Ú":{"ha":1042,"x_min":-76,"x_max":1074,"o":"m 979 1042 l 448 984 l 451 1007 l 883 1157 l 979 1042 m 1074 926 l 992 463 q 787 135 957 270 q 419 0 617 0 q 126 106 247 0 q 1 388 1 218 q 8 463 1 426 l 39 637 l -76 637 l -25 926 l 403 926 l 321 463 q 318 435 318 449 q 363 331 318 373 q 470 289 407 289 q 604 341 542 289 q 679 463 667 394 l 762 926 l 1074 926 z "},"Û":{"ha":1042,"x_min":-76,"x_max":1074,"o":"m 929 984 l 742 984 l 612 1096 l 443 984 l 256 984 l 517 1157 l 728 1157 l 929 984 m 1074 926 l 992 463 q 787 135 957 270 q 419 0 617 0 q 126 106 247 0 q 1 388 1 218 q 8 463 1 426 l 39 637 l -76 637 l -25 926 l 403 926 l 321 463 q 318 435 318 449 q 363 331 318 373 q 470 289 407 289 q 604 341 542 289 q 679 463 667 394 l 762 926 l 1074 926 z "},"Ü":{"ha":1042,"x_min":-76,"x_max":1074,"o":"m 840 1084 q 808 1015 840 1046 q 737 984 777 984 q 685 1005 706 984 q 664 1057 664 1025 q 696 1126 664 1095 q 767 1157 728 1157 q 819 1137 799 1157 q 840 1084 840 1116 m 551 1084 q 519 1015 551 1046 q 448 984 487 984 q 396 1005 417 984 q 375 1057 375 1025 q 407 1126 375 1095 q 478 1157 439 1157 q 530 1137 509 1157 q 551 1084 551 1116 m 1074 926 l 992 463 q 787 135 957 270 q 419 0 617 0 q 126 106 247 0 q 1 388 1 218 q 8 463 1 426 l 39 637 l -76 637 l -25 926 l 403 926 l 321 463 q 318 435 318 449 q 363 331 318 373 q 470 289 407 289 q 604 341 542 289 q 679 463 667 394 l 762 926 l 1074 926 z "},"Ý":{"ha":1146,"x_min":-76,"x_max":1178,"o":"m 1031 1042 l 500 984 l 503 1007 l 935 1157 l 1031 1042 m 1178 926 l 696 289 l 645 0 l 297 0 l 348 289 l 207 637 l -76 637 l -25 926 l 484 926 l 586 654 l 785 926 l 1178 926 z "},"à":{"ha":1100,"x_min":-73,"x_max":1248,"o":"m 770 1007 l 766 984 l 256 1042 l 391 1157 l 770 1007 m 1248 926 l 1197 637 l 914 637 l 969 0 l 610 0 l 600 116 l 336 116 l 286 0 l -73 0 l 333 926 l 1248 926 m 580 347 l 557 617 l 439 347 l 580 347 z "},"á":{"ha":1100,"x_min":-73,"x_max":1248,"o":"m 1008 1042 l 477 984 l 480 1007 l 912 1157 l 1008 1042 m 1248 926 l 1197 637 l 914 637 l 969 0 l 610 0 l 600 116 l 336 116 l 286 0 l -73 0 l 333 926 l 1248 926 m 580 347 l 557 617 l 439 347 l 580 347 z "},"â":{"ha":1100,"x_min":-73,"x_max":1248,"o":"m 958 984 l 771 984 l 641 1096 l 472 984 l 285 984 l 546 1157 l 757 1157 l 958 984 m 1248 926 l 1197 637 l 914 637 l 969 0 l 610 0 l 600 116 l 336 116 l 286 0 l -73 0 l 333 926 l 1248 926 m 580 347 l 557 617 l 439 347 l 580 347 z "},"ã":{"ha":1100,"x_min":-72,"x_max":1249,"o":"m 882 1147 l 862 1031 q 735 984 789 984 q 626 1012 697 984 q 517 1039 556 1039 q 391 984 463 1039 l 411 1102 q 536 1147 471 1147 q 646 1119 575 1147 q 757 1091 718 1091 q 882 1147 811 1091 m 1249 926 l 1198 637 l 916 637 l 970 0 l 611 0 l 601 116 l 337 116 l 287 0 l -72 0 l 334 926 l 1249 926 m 581 347 l 558 617 l 440 347 l 581 347 z "},"ä":{"ha":1100,"x_min":-73,"x_max":1248,"o":"m 869 1084 q 837 1015 869 1046 q 766 984 806 984 q 714 1005 735 984 q 693 1057 693 1025 q 725 1126 693 1095 q 796 1157 757 1157 q 848 1137 828 1157 q 869 1084 869 1116 m 580 1084 q 548 1015 580 1046 q 477 984 516 984 q 425 1005 446 984 q 404 1057 404 1025 q 436 1126 404 1095 q 507 1157 468 1157 q 559 1137 538 1157 q 580 1084 580 1116 m 1248 926 l 1197 637 l 914 637 l 969 0 l 610 0 l 600 116 l 336 116 l 286 0 l -73 0 l 333 926 l 1248 926 m 580 347 l 557 617 l 439 347 l 580 347 z "},"å":{"ha":1100,"x_min":-73,"x_max":1248,"o":"m 725 1084 q 693 1015 725 1046 q 622 984 661 984 q 569 1005 590 984 q 549 1057 549 1025 q 580 1126 549 1095 q 652 1157 612 1157 q 704 1137 683 1157 q 725 1084 725 1116 m 1248 926 l 1197 637 l 914 637 l 969 0 l 610 0 l 600 116 l 336 116 l 286 0 l -73 0 l 333 926 l 1248 926 m 677 1076 q 644 1111 677 1111 q 610 1097 625 1111 q 595 1064 595 1082 q 630 1030 595 1030 q 662 1045 647 1030 q 677 1076 677 1059 m 580 347 l 557 617 l 439 347 l 580 347 z "},"æ":{"ha":1667,"x_min":-53,"x_max":1836,"o":"m 1836 926 l 1784 637 l 1089 637 l 1081 584 l 1428 584 l 1384 341 l 1037 341 l 1029 289 l 1608 289 l 1556 0 l 630 0 l 650 116 l 387 116 l 306 0 l -53 0 l 593 926 l 1836 926 m 738 617 l 532 324 l 688 324 l 738 617 z "},"è":{"ha":984,"x_min":-73,"x_max":1132,"o":"m 712 1007 l 708 984 l 198 1042 l 333 1157 l 712 1007 m 1132 926 l 1081 637 l 387 637 l 377 584 l 725 584 l 682 341 l 334 341 l 325 289 l 904 289 l 853 0 l -73 0 l 90 926 l 1132 926 z "},"é":{"ha":984,"x_min":-73,"x_max":1132,"o":"m 950 1042 l 419 984 l 422 1007 l 854 1157 l 950 1042 m 1132 926 l 1081 637 l 387 637 l 377 584 l 725 584 l 682 341 l 334 341 l 325 289 l 904 289 l 853 0 l -73 0 l 90 926 l 1132 926 z "},"ê":{"ha":984,"x_min":-73,"x_max":1132,"o":"m 900 984 l 713 984 l 583 1096 l 414 984 l 227 984 l 488 1157 l 699 1157 l 900 984 m 1132 926 l 1081 637 l 387 637 l 377 584 l 725 584 l 682 341 l 334 341 l 325 289 l 904 289 l 853 0 l -73 0 l 90 926 l 1132 926 z "},"ë":{"ha":984,"x_min":-73,"x_max":1132,"o":"m 811 1084 q 780 1015 811 1046 q 708 984 748 984 q 656 1005 677 984 q 635 1057 635 1025 q 667 1126 635 1095 q 738 1157 699 1157 q 791 1137 770 1157 q 811 1084 811 1116 m 522 1084 q 490 1015 522 1046 q 419 984 458 984 q 367 1005 388 984 q 346 1057 346 1025 q 378 1126 346 1095 q 449 1157 410 1157 q 501 1137 480 1157 q 522 1084 522 1116 m 1132 926 l 1081 637 l 387 637 l 377 584 l 725 584 l 682 341 l 334 341 l 325 289 l 904 289 l 853 0 l -73 0 l 90 926 l 1132 926 z "},"ì":{"ha":405,"x_min":-91,"x_max":553,"o":"m 422 1007 l 419 984 l -91 1042 l 44 1157 l 422 1007 m 553 926 l 502 637 l 387 637 l 274 0 l -73 0 l 90 926 l 553 926 z "},"í":{"ha":405,"x_min":-73,"x_max":661,"o":"m 661 1042 l 130 984 l 133 1007 l 565 1157 l 661 1042 m 553 926 l 502 637 l 387 637 l 274 0 l -73 0 l 90 926 l 553 926 z "},"î":{"ha":405,"x_min":-73,"x_max":611,"o":"m 611 984 l 424 984 l 294 1096 l 125 984 l -62 984 l 199 1157 l 410 1157 l 611 984 m 553 926 l 502 637 l 387 637 l 274 0 l -73 0 l 90 926 l 553 926 z "},"ï":{"ha":405,"x_min":-73,"x_max":553,"o":"m 522 1084 q 490 1015 522 1046 q 419 984 458 984 q 367 1005 388 984 q 346 1057 346 1025 q 378 1126 346 1095 q 449 1157 410 1157 q 501 1137 480 1157 q 522 1084 522 1116 m 233 1084 q 201 1015 233 1046 q 130 984 169 984 q 78 1005 98 984 q 57 1057 57 1025 q 89 1126 57 1095 q 160 1157 120 1157 q 212 1137 191 1157 q 233 1084 233 1116 m 553 926 l 502 637 l 387 637 l 274 0 l -73 0 l 90 926 l 553 926 z "},"ñ":{"ha":1042,"x_min":-72,"x_max":1191,"o":"m 853 1147 l 833 1031 q 706 984 760 984 q 597 1012 668 984 q 488 1039 527 1039 q 362 984 434 1039 l 382 1102 q 507 1147 442 1147 q 617 1119 546 1147 q 728 1091 689 1091 q 853 1147 782 1091 m 1191 926 l 1140 637 l 1024 637 l 912 0 l 565 0 l 340 370 l 275 0 l -72 0 l 91 926 l 439 926 l 662 556 l 728 926 l 1191 926 z "},"ò":{"ha":1042,"x_min":1,"x_max":999,"o":"m 741 1007 l 737 984 l 227 1042 l 362 1157 l 741 1007 m 999 538 q 815 159 999 323 q 419 0 638 0 q 126 106 247 0 q 1 388 1 218 q 185 767 1 603 q 582 926 363 926 q 874 819 755 926 q 999 538 999 708 m 682 491 q 638 594 682 552 q 531 637 594 637 q 385 575 453 637 q 318 435 318 514 q 363 331 318 373 q 470 289 407 289 q 615 351 549 289 q 682 491 682 412 z "},"ó":{"ha":1042,"x_min":1,"x_max":999,"o":"m 979 1042 l 448 984 l 451 1007 l 883 1157 l 979 1042 m 999 538 q 815 159 999 323 q 419 0 638 0 q 126 106 247 0 q 1 388 1 218 q 185 767 1 603 q 582 926 363 926 q 874 819 755 926 q 999 538 999 708 m 682 491 q 638 594 682 552 q 531 637 594 637 q 385 575 453 637 q 318 435 318 514 q 363 331 318 373 q 470 289 407 289 q 615 351 549 289 q 682 491 682 412 z "},"ô":{"ha":1042,"x_min":1,"x_max":999,"o":"m 929 984 l 742 984 l 612 1096 l 443 984 l 256 984 l 517 1157 l 728 1157 l 929 984 m 999 538 q 815 159 999 323 q 419 0 638 0 q 126 106 247 0 q 1 388 1 218 q 185 767 1 603 q 582 926 363 926 q 874 819 755 926 q 999 538 999 708 m 682 490 q 638 594 682 552 q 531 637 594 637 q 385 575 453 637 q 318 435 318 514 q 363 331 318 373 q 470 289 407 289 q 615 351 549 289 q 682 490 682 412 z "},"õ":{"ha":1042,"x_min":2,"x_max":1000,"o":"m 853 1147 l 833 1031 q 706 984 760 984 q 597 1012 668 984 q 488 1039 527 1039 q 362 984 434 1039 l 382 1102 q 507 1147 442 1147 q 617 1119 546 1147 q 728 1091 689 1091 q 853 1147 782 1091 m 1000 538 q 816 159 1000 323 q 420 0 639 0 q 127 106 248 0 q 2 388 2 218 q 186 767 2 603 q 583 926 365 926 q 875 819 756 926 q 1000 538 1000 708 m 683 491 q 639 594 683 552 q 532 637 595 637 q 387 575 454 637 q 319 435 319 514 q 364 331 319 373 q 471 289 409 289 q 616 351 550 289 q 683 491 683 412 z "},"ö":{"ha":1042,"x_min":1,"x_max":999,"o":"m 840 1084 q 808 1015 840 1046 q 737 984 777 984 q 685 1005 706 984 q 664 1057 664 1025 q 696 1126 664 1095 q 767 1157 728 1157 q 819 1137 799 1157 q 840 1084 840 1116 m 551 1084 q 519 1015 551 1046 q 448 984 487 984 q 396 1005 417 984 q 375 1057 375 1025 q 407 1126 375 1095 q 478 1157 439 1157 q 530 1137 509 1157 q 551 1084 551 1116 m 999 538 q 815 159 999 323 q 419 0 638 0 q 126 106 247 0 q 1 388 1 218 q 185 767 1 603 q 582 926 363 926 q 874 819 755 926 q 999 538 999 708 m 682 491 q 638 594 682 552 q 531 637 594 637 q 385 575 453 637 q 318 435 318 514 q 363 331 318 373 q 470 289 407 289 q 615 351 549 289 q 682 491 682 412 z "},"÷":{"ha":521,"x_min":14,"x_max":507,"o":"m 383 674 q 351 604 383 635 q 280 573 318 573 q 229 594 250 573 q 207 646 207 616 q 240 715 207 684 q 310 747 272 747 q 362 725 340 747 q 383 674 383 704 m 507 550 l 477 376 l 14 376 l 44 550 l 507 550 m 314 280 q 281 211 314 242 q 211 179 249 179 q 159 201 181 179 q 138 252 138 222 q 170 322 138 291 q 241 353 203 353 q 292 332 271 353 q 314 280 314 310 z "},"ø":{"ha":1042,"x_min":-106,"x_max":1148,"o":"m 1148 892 l 965 736 q 1020 537 1020 648 q 834 159 1020 322 q 439 0 656 0 q 188 75 297 0 l -6 -89 l -106 34 l 76 190 q 22 389 22 278 q 207 767 22 604 q 603 926 385 926 q 854 851 743 926 l 1047 1015 l 1148 892 m 596 631 q 551 637 575 637 q 407 576 475 637 q 339 440 339 515 q 341 414 339 427 l 596 631 m 703 486 q 700 512 703 499 l 446 295 q 491 289 466 289 q 635 350 567 289 q 703 486 703 411 z "},"ù":{"ha":1042,"x_min":1,"x_max":1190,"o":"m 741 1007 l 737 984 l 227 1042 l 362 1157 l 741 1007 m 1190 926 l 1139 637 l 1023 637 l 992 463 q 787 135 956 270 q 419 0 618 0 q 126 106 247 0 q 1 388 1 218 q 8 463 1 425 l 90 926 l 403 926 l 321 463 q 318 435 318 449 q 363 331 318 373 q 470 289 407 289 q 604 341 542 289 q 679 463 667 394 l 762 926 l 1190 926 z "},"ú":{"ha":1042,"x_min":1,"x_max":1190,"o":"m 979 1042 l 448 984 l 451 1007 l 883 1157 l 979 1042 m 1190 926 l 1139 637 l 1023 637 l 992 463 q 787 135 956 270 q 419 0 618 0 q 126 106 247 0 q 1 388 1 218 q 8 463 1 425 l 90 926 l 403 926 l 321 463 q 318 435 318 449 q 363 331 318 373 q 470 289 407 289 q 604 341 542 289 q 679 463 667 394 l 762 926 l 1190 926 z "},"û":{"ha":1042,"x_min":1,"x_max":1190,"o":"m 929 984 l 742 984 l 612 1096 l 443 984 l 256 984 l 517 1157 l 728 1157 l 929 984 m 1190 926 l 1139 637 l 1023 637 l 992 463 q 787 135 956 270 q 419 0 618 0 q 126 106 247 0 q 1 388 1 218 q 8 463 1 425 l 90 926 l 403 926 l 321 463 q 318 435 318 449 q 363 331 318 373 q 470 289 407 289 q 604 341 542 289 q 679 463 667 394 l 762 926 l 1190 926 z "},"ü":{"ha":1042,"x_min":1,"x_max":1190,"o":"m 840 1084 q 808 1015 840 1046 q 737 984 777 984 q 685 1005 706 984 q 664 1057 664 1025 q 696 1126 664 1095 q 767 1157 728 1157 q 819 1137 799 1157 q 840 1084 840 1116 m 551 1084 q 519 1015 551 1046 q 448 984 487 984 q 396 1005 417 984 q 375 1057 375 1025 q 407 1126 375 1095 q 478 1157 439 1157 q 530 1137 509 1157 q 551 1084 551 1116 m 1190 926 l 1139 637 l 1023 637 l 992 463 q 787 135 956 270 q 419 0 618 0 q 126 106 247 0 q 1 388 1 218 q 8 463 1 425 l 90 926 l 403 926 l 321 463 q 318 435 318 449 q 363 331 318 373 q 470 289 407 289 q 604 341 542 289 q 679 463 667 394 l 762 926 l 1190 926 z "},"ý":{"ha":1146,"x_min":90,"x_max":1294,"o":"m 1031 1042 l 500 984 l 503 1007 l 935 1157 l 1031 1042 m 1294 926 l 1243 637 l 959 637 l 696 289 l 645 0 l 297 0 l 348 289 l 90 926 l 484 926 l 586 654 l 785 926 l 1294 926 z "},"ÿ":{"ha":1146,"x_min":90,"x_max":1294,"o":"m 892 1084 q 861 1015 892 1046 q 789 984 829 984 q 737 1005 758 984 q 716 1057 716 1025 q 748 1126 716 1095 q 819 1157 780 1157 q 872 1137 851 1157 q 892 1084 892 1116 m 603 1084 q 571 1015 603 1046 q 500 984 539 984 q 448 1005 469 984 q 427 1057 427 1025 q 459 1126 427 1095 q 530 1157 491 1157 q 582 1137 561 1157 q 603 1084 603 1116 m 1294 926 l 1243 637 l 959 637 l 696 289 l 645 0 l 297 0 l 348 289 l 90 926 l 484 926 l 586 654 l 785 926 l 1294 926 z "},"‛":{"ha":289,"x_min":36,"x_max":272,"o":"m 272 829 q 229 736 272 777 q 134 694 186 694 l 149 579 q 65 654 100 582 q 36 770 36 713 q 39 810 36 792 q 87 891 47 856 q 175 926 127 926 q 244 898 215 926 q 272 829 272 870 z "}}}
